<svg id="Layer_1" data-name="Layer 1" xmlns="http://www.w3.org/2000/svg" viewBox="0 0 365 365"><defs><style>.cls-1{fill:#2e1724;}.cls-2{fill:#fff;}</style></defs><rect class="cls-1" width="365" height="365"/><path class="cls-2" d="M344.65,113.46,352.76,135H227a18,18,0,0,1-18-18h0a3.59,3.59,0,0,1,3.59-3.59Z"/><path class="cls-2" d="M352.76,253.56h0a3.59,3.59,0,0,1-3.59,3.59H217.53l-8.45-21.55H334.8A18,18,0,0,1,352.76,253.56Z"/><polygon class="cls-2" points="344.65 113.46 352.76 135.02 217.53 257.15 209.08 235.6 344.65 113.46"/><path class="cls-2" d="M108.5,113.46a71.85,71.85,0,0,0-71.85,71.85H58.2a50.3,50.3,0,0,1,100.59,0h21.55A71.85,71.85,0,0,0,108.5,113.46Z"/><path class="cls-2" d="M158.32,202.24a3.58,3.58,0,0,0-3.32,2.23,50.3,50.3,0,0,1-96.8-19.16H36.65a71.85,71.85,0,0,0,135.91,32.54,10.77,10.77,0,0,0-9.64-15.61Z"/><path class="cls-2" d="M178.3,22.94h0a4.31,4.31,0,0,1,4.31,4.31V330.43a17.24,17.24,0,0,1-17.24,17.24h0a4.31,4.31,0,0,1-4.31-4.31V40.18A17.24,17.24,0,0,1,178.3,22.94Z" transform="translate(-13.47 357.14) rotate(-90)"/></svg>