<svg xmlns="http://www.w3.org/2000/svg" xmlns:xlink="http://www.w3.org/1999/xlink" version="1.0" x="0px" y="0px" viewBox="0 0 100 125" enable-background="new 0 0 100 100" xml:space="preserve"><g><g><path d="M77.0126877,64.8701019C69.1845932,62.293499,65.6361923,60.8945007,64.375,60.3666992l0.0478897-12.4682999    c1.521904-0.2753983,2.8105011-1.1830978,3.6932983-2.6224976c1.4024048-2.2871017,1.6044998-5.705101,0.4701996-7.9497032    c-0.7455978-1.4760971-2.2841949-2.4638977-4.0765991-2.6767998v-8.6801987c0-0.2744007-0.1112976-0.522501-0.2903976-0.7033005    c1.4430008-0.294899,2.8781967-0.6479988,4.2972031-1.0900993c0.527298-0.1641006,0.8218002-0.7245998,0.657196-1.2520008    c-0.1640015-0.5277996-0.7250977-0.8216991-1.2518997-0.6571999c-5.142601,1.6016006-10.6078911,2.0552006-15.8931007,2.4941006    c-1.0756989,0.0893993-2.152298,0.1788006-3.2279968,0.2773991c-0.5497932,0.0503006-0.955101,0.5370998-0.9043007,1.0869007    c0.0472984,0.5189991,0.4833984,0.9087009,0.9945984,0.9087009c0.0303001,0,0.0610008-0.0015011,0.0923004-0.0044003    c1.0698013-0.0977001,2.1406097-0.1865005,3.2108994-0.2754002c3.426899-0.2845001,6.9276009-0.578001,10.398201-1.1799011    c-0.0524902,0.1214008-0.0826988,0.2546005-0.0826988,0.3952007v9.6431007c0,0.2738991,0.1122971,0.5355988,0.3104973,0.7240982    c0.1982994,0.1884995,0.4589996,0.2826996,0.7388,0.2749023c1.4297028-0.0786018,2.7099075,0.5634995,3.2422028,1.6166992    c0.8198013,1.6221008,0.6445007,4.3144989-0.3902054,6.0019989c-0.713295,1.1631012-1.7181931,1.7544022-2.9872971,1.7578011    c-0.5497894,0.0014992-0.9955978,0.4463005-0.9974976,0.9960976L62.3725891,61.017601    c-0.0001984,0.0312996,0.009903,0.0602989,0.0127029,0.0910988c-0.088501,2.0658989-5.3465004,4.3521996-12.3731003,4.3521996    c-7.0863991,0-12.3818016-2.3255997-12.3818016-4.405201c0-0.0080986-0.0043907-0.014698-0.0046005-0.0226974    c0.000103-0.0053024,0.0021019-0.0101013,0.0021019-0.0153999l-0.0541992-14.0337029    c-0.0018997-0.5497971-0.4476929-0.9945984-0.9975014-0.9960976c-1.2691002-0.0033989-2.2739983-0.5946999-2.9873009-1.7578011    c-1.0346985-1.6875-1.2099991-4.3798981-0.3901978-6.0024986c0.5313072-1.0527,1.7989006-1.6928024,3.2421989-1.6161995    c0.2754021,0.0038986,0.5381088-0.0848999,0.7359009-0.2719002c0.1982079-0.1870995,0.3115005-0.4473,0.3134003-0.7193031    l0.0043983-0.5912971c-0.0107002-3.1343002,0.844799-6.3164005,2.3472023-8.7305012    c3.0390968-4.8832989,8.464798-5.2924004,14.2094994-5.7255001c1.4487076-0.1089001,2.9462967-0.2222004,4.3652-0.4155998    c0.4657974-0.0634003,0.953598-0.1185989,1.4530983-0.174799c2.0376015-0.2309017,4.3471985-0.4927006,6.2157974-1.4267006    c0.4942017-0.2471008,0.6944046-0.8477001,0.4473038-1.3418007c-0.2471008-0.4937-0.8471985-0.6943989-1.3418045-0.4473    c-1.5512962,0.7758999-3.5824966,1.0058994-5.5463982,1.2285004c-0.5150986,0.0580997-1.0174904,0.1152992-1.4979973,0.1807003    c-1.3594017,0.1849995-2.7612,0.2910004-4.2456017,0.4027996c-5.7099991,0.4307003-12.1820984,0.9185009-15.7572975,6.6630993    c-1.6592026,2.6660004-2.5932999,5.9966011-2.6464996,9.4067001c-1.7954025,0.2120018-3.3369026,1.1996994-4.0835018,2.6772995    c-1.1343002,2.2451019-0.9321995,5.6631012,0.4701996,7.9502029c0.8827991,1.4393997,2.1718998,2.3470993,3.6933002,2.6224976    l0.0484009,12.4682999c-1.2616997,0.5278015-4.8101006,1.9267998-12.6382008,4.5034027    C11.935092,68.5073013,11.1342926,81.3490982,11.1054926,81.8939972c-0.0293007,0.5518036,0.3945074,1.0224991,0.9457998,1.0513    c0.0179996,0.0009995,0.0355997,0.001503,0.0537071,0.001503c0.5277929,0,0.9696922-0.4141006,0.9974928-0.9473038    c0.0064001-0.1200943,0.7437-12.0155945,10.509799-15.2299957c7.1037083-2.3377991,10.6978016-3.7060013,12.3147984-4.3628998    c1.3186035,2.9585953,6.9333,5.0542984,14.0851021,5.0542984c7.1450005,0,12.7552986-2.0922012,14.0802994-5.0465012    c1.6257019,0.6598015,5.2176971,2.0259018,12.2951965,4.3551025c9.7393112,3.2055969,10.5028992,15.1109009,10.5098038,15.2310028    c0.0292969,0.5326996,0.4701996,0.9457932,0.9975052,0.9457932c0.0180969,0,0.0365906-0.0004959,0.0546951-0.0014954    c0.5507965-0.0298004,0.9740982-0.4995041,0.9448013-1.0508041C88.8656921,81.3490982,88.064888,68.5073013,77.0126877,64.8701019    z"/><circle cx="43.4248924" cy="41.1629982" r="1.3327999"/><circle cx="56.2196922" cy="41.1629982" r="1.3327999"/><path d="M49.6889992,40.1631012c-0.5523071,0-1,0.4477005-1,1v6.2640991c0,0.5522995,0.4476929,1,1,1H53.28759    c0.5522003,0,1-0.4477005,1-1c0-0.5522003-0.4477997-1-1-1h-2.5985909v-5.2640991    C50.6889992,40.6108017,50.2411919,40.1631012,49.6889992,40.1631012z"/><path d="M45.9037895,52.1528015c-0.2074966,0.5117989,0.0391006,1.094799,0.5513,1.3022995    c1.3252029,0.5370979,2.9331017,0.8090973,4.5239105,0.8090973c1.3944893,0,2.7768898-0.2089996,3.9433899-0.6308975    c0.5195007-0.1879997,0.7885017-0.7612,0.600502-1.2803001c-0.1878929-0.5195007-0.7602005-0.7885017-1.280201-0.6006012    c-2.0415001,0.7383003-5.0004997,0.6744003-7.0365982-0.1507988    C46.6942902,51.3945007,46.1117897,51.6405983,45.9037895,52.1528015z"/></g></g><text x="0" y="115" fill="#000000" font-size="5px" font-weight="bold" font-family="'Helvetica Neue', Helvetica, Arial-Unicode, Arial, Sans-serif">Created by Yu luck</text><text x="0" y="120" fill="#000000" font-size="5px" font-weight="bold" font-family="'Helvetica Neue', Helvetica, Arial-Unicode, Arial, Sans-serif">from the Noun Project</text></svg>