<svg id="Layer_1" data-name="Layer 1" xmlns="http://www.w3.org/2000/svg" viewBox="0 0 677.80911 587"><defs><style>.cls-1{fill:none;stroke:#000;stroke-miterlimit:10;stroke-width:20px;}</style></defs><path d="M493.92319,25,648.94168,293.5,493.92319,562H183.886L28.86745,293.5,183.886,25h310.0372M508.35684,0H169.45229L0,293.5,169.45229,587H508.35684L677.80911,293.5,508.35684,0Z"/><path d="M207.07321,302.11328c.626,37.22168,24.39746,52.54883,51.92285,52.54883,19.70606,0,31.5918-3.44043,41.91407-7.82031l4.69238,19.70605c-9.6963,4.37891-26.27442,9.38379-50.35938,9.38379-46.60547,0-74.44433-30.65332-74.44433-76.32031,0-45.668,26.90039-81.63867,71.0039-81.63867,49.4209,0,62.55762,43.47754,62.55762,71.3164a103.87794,103.87794,0,0,1-.93848,12.82422Zm80.7002-19.706c.3125-17.51563-7.19434-44.72852-38.16016-44.72852-27.83887,0-40.03711,25.64844-42.22656,44.72852Z"/><path d="M365.39938,358.417l68.501-89.14551c6.56934-8.13232,12.8252-15.32666,19.70605-23.459V245.187H371.65524V222.979H487.07516l-.3125,17.20313-67.56347,87.894c-6.25586,8.44531-12.51074,15.95215-19.39258,23.77246v.625h88.51953v21.89551H365.39938Z"/><path class="cls-1" d="M209.21872,292.5c-167-1-36.26892-273.3393-29-281"/><path class="cls-1" d="M470.42163,292.42922c167,1,36.26892,273.3393,29,281"/><line class="cls-1" x1="198.21872" y1="292.5" x2="471.71872" y2="292.5"/></svg>