<svg id="Layer_1" data-name="Layer 1" xmlns="http://www.w3.org/2000/svg" xmlns:xlink="http://www.w3.org/1999/xlink" viewBox="0 0 64 64"><defs><style>.cls-1{fill:url(#linear-gradient);}.cls-2{fill:url(#linear-gradient-2);}.cls-3{fill:url(#linear-gradient-3);}.cls-4{fill:url(#linear-gradient-4);}.cls-5{fill:url(#linear-gradient-5);}.cls-6{fill:url(#linear-gradient-6);}</style><linearGradient id="linear-gradient" x1="36.86446" y1="21.375" x2="61.86446" y2="21.375" gradientUnits="userSpaceOnUse"><stop offset="0" stop-color="#8c3f76"/><stop offset="0.25044" stop-color="#70325e"/><stop offset="0.5128" stop-color="#5a284c"/><stop offset="0.7666" stop-color="#4d2241"/><stop offset="1" stop-color="#49203d"/></linearGradient><linearGradient id="linear-gradient-2" x1="36.86446" y1="42.625" x2="61.86446" y2="42.625" gradientUnits="userSpaceOnUse"><stop offset="0" stop-color="#49203d"/><stop offset="0.2334" stop-color="#4d2241"/><stop offset="0.4872" stop-color="#5a284c"/><stop offset="0.74956" stop-color="#70325e"/><stop offset="1" stop-color="#8c3f76"/></linearGradient><linearGradient id="linear-gradient-3" x1="36.86446" y1="32" x2="61.86433" y2="32" gradientUnits="userSpaceOnUse"><stop offset="0" stop-color="#be6e89"/><stop offset="0.50559" stop-color="#c69"/><stop offset="0.82692" stop-color="#ca6797"/><stop offset="0.94253" stop-color="#c46a90"/><stop offset="1" stop-color="#be6e89"/></linearGradient><linearGradient id="linear-gradient-4" x1="6.86446" y1="25.75" x2="31.86446" y2="25.75" gradientUnits="userSpaceOnUse"><stop offset="0" stop-color="#8c3f76"/><stop offset="0.02513" stop-color="#94447a"/><stop offset="0.11076" stop-color="#aa5185"/><stop offset="0.21191" stop-color="#bb5b8e"/><stop offset="0.33702" stop-color="#c66294"/><stop offset="0.51258" stop-color="#cd6697"/><stop offset="1" stop-color="#cf6798"/></linearGradient><linearGradient id="linear-gradient-5" x1="6.86445" y1="38.25" x2="30.71494" y2="38.25" xlink:href="#linear-gradient"/><linearGradient id="linear-gradient-6" x1="2.13554" y1="32" x2="58.63554" y2="32" gradientTransform="translate(62.38554 1.61446) rotate(90)" gradientUnits="userSpaceOnUse"><stop offset="0" stop-color="#be6e89"/><stop offset="0.05877" stop-color="#c46a90"/><stop offset="0.17699" stop-color="#ca6797"/><stop offset="0.50559" stop-color="#c69"/><stop offset="0.82692" stop-color="#ca6797"/><stop offset="0.94253" stop-color="#c46a90"/><stop offset="1" stop-color="#be6e89"/></linearGradient></defs><path class="cls-1" d="M60.453,19.5l1.41147,3.75h-21.875a3.125,3.125,0,0,1-3.125-3.125h0a.625.625,0,0,1,.625-.625Z"/><path class="cls-2" d="M61.86446,43.875h0a.625.625,0,0,1-.625.625H38.33536l-1.4709-3.75h21.875A3.125,3.125,0,0,1,61.86446,43.875Z"/><polygon class="cls-3" points="60.453 19.5 61.864 23.25 38.335 44.5 36.864 40.75 60.453 19.5"/><path class="cls-4" d="M19.36446,19.5a12.5,12.5,0,0,0-12.5,12.5h3.75a8.75,8.75,0,0,1,17.5,0h3.75A12.5,12.5,0,0,0,19.36446,19.5Z"/><path class="cls-5" d="M28.03273,34.94564a.62474.62474,0,0,0-.57721.388A8.75059,8.75059,0,0,1,10.61445,32h-3.75a12.50126,12.50126,0,0,0,23.64607,5.6622,1.87388,1.87388,0,0,0-1.6763-2.71656Z"/><path class="cls-6" d="M31.21054,3.75h.375a.675.675,0,0,1,.675.675V57.55a2.7,2.7,0,0,1-2.7,2.7h-.375a.675.675,0,0,1-.675-.675V6.45a2.7,2.7,0,0,1,2.7-2.7Z" transform="translate(-1.61446 62.38554) rotate(-90)"/></svg>