<svg id="Layer_1" data-name="Layer 1" xmlns="http://www.w3.org/2000/svg" viewBox="0 0 512 512"><defs><style>.cls-1{fill:#dc143c;}.cls-2{fill:#fff;}</style></defs><rect class="cls-1" width="512" height="512"/><path class="cls-2" d="M419.53273,177.78337l8.11234,21.553H301.91915a17.96082,17.96082,0,0,1-17.96083-17.96082v0a3.59217,3.59217,0,0,1,3.59217-3.59217Z"/><path class="cls-2" d="M427.64507,317.87793v0a3.59217,3.59217,0,0,1-3.59217,3.59217H292.41232l-8.454-21.553H409.68425A17.96082,17.96082,0,0,1,427.64507,317.87793Z"/><polygon class="cls-2" points="419.533 177.783 427.644 199.339 292.412 321.47 283.958 299.917 419.533 177.783"/><path class="cls-2" d="M183.3776,177.78337a71.84337,71.84337,0,0,0-71.84337,71.84338h21.553a50.29036,50.29036,0,1,1,100.58072,0h21.553A71.84337,71.84337,0,0,0,183.3776,177.78337Z"/><path class="cls-2" d="M233.19825,266.55671a3.59071,3.59071,0,0,0-3.31753,2.23006,50.29377,50.29377,0,0,1-96.7935-19.16h-21.553a71.85061,71.85061,0,0,0,135.905,32.54336,10.77,10.77,0,0,0-9.63445-15.61338Z"/><path class="cls-2" d="M253.18684,87.26072h0a4.3106,4.3106,0,0,1,4.3106,4.3106V394.75038a17.24239,17.24239,0,0,1-17.24239,17.24239h0a4.3106,4.3106,0,0,1-4.3106-4.3106V104.50311a17.24239,17.24239,0,0,1,17.24239-17.24239Z" transform="translate(-2.90579 496.3477) rotate(-90)"/></svg>