<svg id="Layer_1" data-name="Layer 1" xmlns="http://www.w3.org/2000/svg" xmlns:xlink="http://www.w3.org/1999/xlink" viewBox="0 0 256 256"><defs><style>.cls-1{fill:url(#linear-gradient);}.cls-2{fill:url(#linear-gradient-2);}.cls-3{fill:url(#linear-gradient-3);}.cls-4{fill:url(#linear-gradient-4);}.cls-5{fill:url(#linear-gradient-5);}.cls-6{fill:url(#linear-gradient-6);}</style><linearGradient id="linear-gradient" x1="147.45783" y1="85.5" x2="247.45783" y2="85.5" gradientUnits="userSpaceOnUse"><stop offset="0" stop-color="#8c3f76"/><stop offset="0.25044" stop-color="#70325e"/><stop offset="0.5128" stop-color="#5a284c"/><stop offset="0.7666" stop-color="#4d2241"/><stop offset="1" stop-color="#49203d"/></linearGradient><linearGradient id="linear-gradient-2" x1="147.45783" y1="170.5" x2="247.45783" y2="170.5" gradientUnits="userSpaceOnUse"><stop offset="0" stop-color="#49203d"/><stop offset="0.2334" stop-color="#4d2241"/><stop offset="0.4872" stop-color="#5a284c"/><stop offset="0.74956" stop-color="#70325e"/><stop offset="1" stop-color="#8c3f76"/></linearGradient><linearGradient id="linear-gradient-3" x1="147.45783" y1="128" x2="247.45734" y2="128" gradientUnits="userSpaceOnUse"><stop offset="0" stop-color="#be6e89"/><stop offset="0.50559" stop-color="#c69"/><stop offset="0.82692" stop-color="#ca6797"/><stop offset="0.94253" stop-color="#c46a90"/><stop offset="1" stop-color="#be6e89"/></linearGradient><linearGradient id="linear-gradient-4" x1="27.45783" y1="103" x2="127.45783" y2="103" gradientUnits="userSpaceOnUse"><stop offset="0" stop-color="#8c3f76"/><stop offset="0.02513" stop-color="#94447a"/><stop offset="0.11076" stop-color="#aa5185"/><stop offset="0.21191" stop-color="#bb5b8e"/><stop offset="0.33702" stop-color="#c66294"/><stop offset="0.51258" stop-color="#cd6697"/><stop offset="1" stop-color="#cf6798"/></linearGradient><linearGradient id="linear-gradient-5" x1="27.45782" y1="152.99999" x2="122.85975" y2="152.99999" xlink:href="#linear-gradient"/><linearGradient id="linear-gradient-6" x1="8.54217" y1="128" x2="234.54217" y2="128" gradientTransform="translate(249.54217 6.45783) rotate(90)" gradientUnits="userSpaceOnUse"><stop offset="0" stop-color="#be6e89"/><stop offset="0.05877" stop-color="#c46a90"/><stop offset="0.17699" stop-color="#ca6797"/><stop offset="0.50559" stop-color="#c69"/><stop offset="0.82692" stop-color="#ca6797"/><stop offset="0.94253" stop-color="#c46a90"/><stop offset="1" stop-color="#be6e89"/></linearGradient></defs><path class="cls-1" d="M241.812,78l5.64585,15h-87.5a12.5,12.5,0,0,1-12.5-12.5v0a2.5,2.5,0,0,1,2.5-2.5Z"/><path class="cls-2" d="M247.45783,175.5h0a2.5,2.5,0,0,1-2.5,2.5H153.34146l-5.88363-15h87.5A12.5,12.5,0,0,1,247.45783,175.5Z"/><polygon class="cls-3" points="241.812 78 247.457 93.002 153.341 178 147.458 163 241.812 78"/><path class="cls-4" d="M77.45783,78a50,50,0,0,0-50,50h15a35,35,0,0,1,70,0h15A50,50,0,0,0,77.45783,78Z"/><path class="cls-5" d="M112.13093,139.78255a2.499,2.499,0,0,0-2.30886,1.552A35.00237,35.00237,0,0,1,42.45782,128h-15a50.005,50.005,0,0,0,94.58425,22.64882,7.49551,7.49551,0,0,0-6.70518-10.86626Z"/><path class="cls-6" d="M126.04216,15h0a3,3,0,0,1,3,3V229a12,12,0,0,1-12,12h0a3,3,0,0,1-3-3V27a12,12,0,0,1,12-12Z" transform="translate(-6.45783 249.54217) rotate(-90)"/></svg>