<svg id="Layer_1" data-name="Layer 1" xmlns="http://www.w3.org/2000/svg" xmlns:xlink="http://www.w3.org/1999/xlink" viewBox="0 0 128 128"><defs><style>.cls-1{fill:url(#linear-gradient);}.cls-2{fill:url(#linear-gradient-2);}.cls-3{fill:url(#linear-gradient-3);}.cls-4{fill:url(#linear-gradient-4);}.cls-5{fill:url(#linear-gradient-5);}.cls-6{fill:url(#linear-gradient-6);}</style><linearGradient id="linear-gradient" x1="73.72891" y1="42.75001" x2="123.7289" y2="42.75001" gradientUnits="userSpaceOnUse"><stop offset="0" stop-color="#8c3f76"/><stop offset="0.25044" stop-color="#70325e"/><stop offset="0.5128" stop-color="#5a284c"/><stop offset="0.7666" stop-color="#4d2241"/><stop offset="1" stop-color="#49203d"/></linearGradient><linearGradient id="linear-gradient-2" x1="73.72891" y1="85.24999" x2="123.7289" y2="85.24999" gradientUnits="userSpaceOnUse"><stop offset="0" stop-color="#49203d"/><stop offset="0.2334" stop-color="#4d2241"/><stop offset="0.4872" stop-color="#5a284c"/><stop offset="0.74956" stop-color="#70325e"/><stop offset="1" stop-color="#8c3f76"/></linearGradient><linearGradient id="linear-gradient-3" x1="73.72891" y1="64" x2="123.72865" y2="64" gradientUnits="userSpaceOnUse"><stop offset="0" stop-color="#be6e89"/><stop offset="0.50559" stop-color="#c69"/><stop offset="0.82692" stop-color="#ca6797"/><stop offset="0.94253" stop-color="#c46a90"/><stop offset="1" stop-color="#be6e89"/></linearGradient><linearGradient id="linear-gradient-4" x1="13.72893" y1="51.5" x2="63.72892" y2="51.5" gradientUnits="userSpaceOnUse"><stop offset="0" stop-color="#8c3f76"/><stop offset="0.02513" stop-color="#94447a"/><stop offset="0.11076" stop-color="#aa5185"/><stop offset="0.21191" stop-color="#bb5b8e"/><stop offset="0.33702" stop-color="#c66294"/><stop offset="0.51258" stop-color="#cd6697"/><stop offset="1" stop-color="#cf6798"/></linearGradient><linearGradient id="linear-gradient-5" x1="13.72892" y1="76.49999" x2="61.42988" y2="76.49999" xlink:href="#linear-gradient"/><linearGradient id="linear-gradient-6" x1="4.2711" y1="64" x2="117.27107" y2="64" gradientTransform="translate(124.77109 3.22892) rotate(90)" gradientUnits="userSpaceOnUse"><stop offset="0" stop-color="#be6e89"/><stop offset="0.05877" stop-color="#c46a90"/><stop offset="0.17699" stop-color="#ca6797"/><stop offset="0.50559" stop-color="#c69"/><stop offset="0.82692" stop-color="#ca6797"/><stop offset="0.94253" stop-color="#c46a90"/><stop offset="1" stop-color="#be6e89"/></linearGradient></defs><path class="cls-1" d="M120.906,39l2.82293,7.5h-43.75a6.25,6.25,0,0,1-6.25-6.25h0a1.25,1.25,0,0,1,1.25-1.25Z"/><path class="cls-2" d="M123.7289,87.75h0a1.25,1.25,0,0,1-1.25,1.25H76.67073l-2.94182-7.5h43.75A6.25,6.25,0,0,1,123.7289,87.75Z"/><polygon class="cls-3" points="120.906 39 123.729 46.501 76.671 89 73.729 81.5 120.906 39"/><path class="cls-4" d="M38.72892,39a25,25,0,0,0-25,25h7.5a17.5,17.5,0,0,1,35,0h7.5A25,25,0,0,0,38.72892,39Z"/><path class="cls-5" d="M56.06547,69.89127a1.24949,1.24949,0,0,0-1.15443.776A17.50118,17.50118,0,0,1,21.22892,64h-7.5A25.00251,25.00251,0,0,0,61.021,75.3244a3.74775,3.74775,0,0,0-3.35258-5.43313Z"/><path class="cls-6" d="M63.02108,7.5h0a1.5,1.5,0,0,1,1.5,1.5V114.5a6,6,0,0,1-6,6h0a1.5,1.5,0,0,1-1.5-1.5V13.5a6,6,0,0,1,6-6Z" transform="translate(-3.22891 124.77109) rotate(-90)"/></svg>