<svg id="Layer_1" data-name="Layer 1" xmlns="http://www.w3.org/2000/svg" xmlns:xlink="http://www.w3.org/1999/xlink" viewBox="0 0 512 512"><defs><style>.cls-1{fill:url(#linear-gradient);}.cls-2{fill:url(#linear-gradient-2);}.cls-3{fill:url(#linear-gradient-3);}.cls-4{fill:url(#linear-gradient-4);}.cls-5{fill:url(#linear-gradient-5);}.cls-6{fill:url(#linear-gradient-6);}</style><linearGradient id="linear-gradient" x1="294.42169" y1="171.23036" x2="494.42169" y2="171.23036" gradientUnits="userSpaceOnUse"><stop offset="0" stop-color="#8c3f76"/><stop offset="0.25044" stop-color="#70325e"/><stop offset="0.5128" stop-color="#5a284c"/><stop offset="0.7666" stop-color="#4d2241"/><stop offset="1" stop-color="#49203d"/></linearGradient><linearGradient id="linear-gradient-2" x1="294.42169" y1="341.23036" x2="494.42169" y2="341.23036" gradientUnits="userSpaceOnUse"><stop offset="0" stop-color="#49203d"/><stop offset="0.2334" stop-color="#4d2241"/><stop offset="0.4872" stop-color="#5a284c"/><stop offset="0.74956" stop-color="#70325e"/><stop offset="1" stop-color="#8c3f76"/></linearGradient><linearGradient id="linear-gradient-3" x1="294.42169" y1="256.23036" x2="494.42069" y2="256.23036" gradientUnits="userSpaceOnUse"><stop offset="0" stop-color="#be6e89"/><stop offset="0.50559" stop-color="#c69"/><stop offset="0.82692" stop-color="#ca6797"/><stop offset="0.94253" stop-color="#c46a90"/><stop offset="1" stop-color="#be6e89"/></linearGradient><linearGradient id="linear-gradient-4" x1="54.42169" y1="206.23036" x2="254.42169" y2="206.23036" gradientUnits="userSpaceOnUse"><stop offset="0" stop-color="#8c3f76"/><stop offset="0.02513" stop-color="#94447a"/><stop offset="0.11076" stop-color="#aa5185"/><stop offset="0.21191" stop-color="#bb5b8e"/><stop offset="0.33702" stop-color="#c66294"/><stop offset="0.51258" stop-color="#cd6697"/><stop offset="1" stop-color="#cf6798"/></linearGradient><linearGradient id="linear-gradient-5" x1="54.42166" y1="306.23034" x2="245.22552" y2="306.23034" xlink:href="#linear-gradient"/><linearGradient id="linear-gradient-6" x1="16.59036" y1="256.23036" x2="468.59036" y2="256.23036" gradientTransform="translate(498.82072 13.64) rotate(90)" gradientUnits="userSpaceOnUse"><stop offset="0" stop-color="#be6e89"/><stop offset="0.05877" stop-color="#c46a90"/><stop offset="0.17699" stop-color="#ca6797"/><stop offset="0.50559" stop-color="#c69"/><stop offset="0.82692" stop-color="#ca6797"/><stop offset="0.94253" stop-color="#c46a90"/><stop offset="1" stop-color="#be6e89"/></linearGradient></defs><path class="cls-1" d="M483.13,156.23036l11.29171,30h-175a25,25,0,0,1-25-25v0a5,5,0,0,1,5-5Z"/><path class="cls-2" d="M494.42169,351.23033v0a5,5,0,0,1-5,5H306.18894l-11.76725-30h175A25,25,0,0,1,494.42169,351.23033Z"/><polygon class="cls-3" points="483.13 156.23 494.421 186.234 306.189 356.23 294.422 326.23 483.13 156.23"/><path class="cls-4" d="M154.42169,156.23036a100,100,0,0,0-100,100h30a70,70,0,1,1,140,0h30A100,100,0,0,0,154.42169,156.23036Z"/><path class="cls-5" d="M223.76789,279.79547a4.998,4.998,0,0,0-4.61773,3.104,70.00474,70.00474,0,0,1-134.7285-26.66918h-30A100.01007,100.01007,0,0,0,243.59016,301.528a14.991,14.991,0,0,0-13.41036-21.73251Z"/><path class="cls-6" d="M247.59036,30.23036h5a5,5,0,0,1,5,5v427a20,20,0,0,1-20,20h-5a5,5,0,0,1-5-5v-427A20,20,0,0,1,247.59036,30.23036Z" transform="translate(-13.64 498.82072) rotate(-90)"/></svg>